<?xml version="1.0" encoding="utf-8"?>
<!-- Generator: Adobe Illustrator 23.0.1, SVG Export Plug-In . SVG Version: 6.00 Build 0)  -->
<svg version="1.1" id="Слой_1" xmlns="http://www.w3.org/2000/svg" xmlns:xlink="http://www.w3.org/1999/xlink" x="0px" y="0px"
	 viewBox="0 0 1440 1900" style="enable-background:new 0 0 1440 1900;" xml:space="preserve">
<style type="text/css">
	.st0{fill:#DDDFD7;}
	.st1{opacity:0.2;fill:#FFFFFF;enable-background:new    ;}
</style>
<polygon class="st0" points="0,0 1440,0 1442.18,1900 0,1900 "/>
<path class="st1" d="M150.46,202.07v-4.65l18.6-4.65V56.37l-18.6-4.65v-4.65h86.8v4.65l-18.6,4.65v102.3l49.6-85.25V56.37
	l-18.6-4.65v-4.65h86.8v4.65l-18.6,4.65v136.4l18.6,4.65v4.65h-86.8v-4.65l18.6-4.65V90.47l-49.6,85.25v17.05l18.6,4.65v4.65
	L150.46,202.07L150.46,202.07z M444.86,206.72c-26.45,0-47.02-7.23-61.69-21.7c-14.67-14.67-22.01-34.82-22.01-60.45
	s7.34-45.67,22.01-60.14c14.67-14.67,35.24-22.01,61.69-22.01c19.01,0,33.27,3.31,42.78,9.92c9.71,6.61,14.57,14.67,14.57,24.18
	c0,7.03-2.17,12.71-6.51,17.05c-4.13,4.13-9.71,6.2-16.74,6.2c-2.89,0-5.79-0.21-8.68-0.62l-3.72-0.93v-46.5l-4.34-1.55
	c-3.1-1.03-6.82-1.55-11.16-1.55c-11.78,0-20.98,5.58-27.59,16.74c-6.41,11.16-9.61,30.9-9.61,59.21c0,27.49,3.2,46.81,9.61,57.97
	c6.61,10.95,15.81,16.43,27.59,16.43c8.06,0,15.5-1.86,22.32-5.58c7.03-3.93,12.5-8.99,16.43-15.19c4.13-6.41,6.2-12.92,6.2-19.53
	h7.75c0,8.27-2.48,16.12-7.44,23.56s-11.88,13.43-20.77,17.98C466.66,204.55,456.43,206.72,444.86,206.72z M554.99,197.42l18.6-4.65
	V54.82h-23.25c0,11.37-3.41,22.84-10.23,34.41c-2.69,4.34-5.99,8.37-9.92,12.09h-9.3V47.07h155v54.25h-9.3
	c-3.93-3.51-7.34-7.54-10.23-12.09c-6.61-11.16-9.92-22.63-9.92-34.41h-23.25v137.95l18.6,4.65v4.65h-86.8L554.99,197.42
	L554.99,197.42z M778.13,206.72c-25.63,0-45.78-7.23-60.45-21.7c-14.47-14.67-21.7-34.82-21.7-60.45s7.23-45.67,21.7-60.14
	c14.67-14.67,34.82-22.01,60.45-22.01s45.67,7.34,60.14,22.01c14.67,14.47,22.01,34.51,22.01,60.14s-7.34,45.78-22.01,60.45
	C823.81,199.48,803.76,206.72,778.13,206.72z M778.13,200.52c8.27,0,15.19-5.79,20.77-17.36c5.79-11.57,8.68-31.1,8.68-58.59
	s-2.89-47.02-8.68-58.59c-5.58-11.57-12.5-17.36-20.77-17.36s-15.29,5.79-21.08,17.36c-5.58,11.57-8.37,31.1-8.37,58.59
	s2.79,47.02,8.37,58.59C762.84,194.73,769.87,200.52,778.13,200.52z M882.09,259.42l18.6-4.65V56.37l-18.6-4.65v-4.65h27.9
	c12.19,0,21.8,3.93,28.83,11.78c2.69,3.1,4.96,6.92,6.82,11.47c2.69-5.37,6.1-10.02,10.23-13.95c9.3-9.3,20.87-13.95,34.72-13.95
	c12.19,0,23.04,3.2,32.55,9.61c9.51,6.2,17.05,15.5,22.63,27.9c5.58,12.19,8.37,27.07,8.37,44.64c0,26.45-6.2,46.81-18.6,61.07
	c-12.19,14.05-28.73,21.08-49.6,21.08c-9.92,0-18.6-2.07-26.04-6.2c-3.1-1.45-6.3-3.51-9.61-6.2v60.45l18.6,4.65v4.65h-86.8
	L882.09,259.42L882.09,259.42z M973.54,197.42c8.89,0,15.71-5.17,20.46-15.5c4.96-10.33,7.44-29.45,7.44-57.35
	c0-26.66-2.27-45.16-6.82-55.49c-4.34-10.54-9.82-15.81-16.43-15.81c-7.85,0-14.88,4.13-21.08,12.4c-2.69,3.51-4.96,7.65-6.82,12.4
	v106.95c2.89,2.89,5.17,4.96,6.82,6.2C962.69,195.35,968.17,197.42,973.54,197.42z M1078.94,202.07v-4.65l18.6-4.65V56.37
	l-18.6-4.65v-4.65h86.8v4.65l-18.6,4.65v102.3l49.6-85.25V56.37l-18.6-4.65v-4.65h86.8v4.65l-18.6,4.65v136.4l18.6,4.65v4.65h-86.8
	v-4.65l18.6-4.65V90.47l-49.6,85.25v17.05l18.6,4.65v4.65L1078.94,202.07L1078.94,202.07z M1289.65,202.07v-4.65l18.6-4.65V56.37
	l-18.6-4.65v-4.65h86.8v4.65l-18.6,4.65v102.3l49.6-85.25V56.37l-18.6-4.65v-4.65h86.8v4.65l-18.6,4.65v136.4l18.6,4.65v4.65h-86.8
	v-4.65l18.6-4.65V90.47l-49.6,85.25v17.05l18.6,4.65v4.65L1289.65,202.07L1289.65,202.07z"/>
</svg>
