<?xml version="1.0" encoding="utf-8"?>
<!-- Generator: Adobe Illustrator 23.0.1, SVG Export Plug-In . SVG Version: 6.00 Build 0)  -->
<svg version="1.1" id="Слой_1" xmlns="http://www.w3.org/2000/svg" xmlns:xlink="http://www.w3.org/1999/xlink" x="0px" y="0px"
	 viewBox="0 0 70 60" style="enable-background:new 0 0 70 60;" xml:space="preserve">
<style type="text/css">
	.st0{fill:#4D545D;}
</style>
<path class="st0" d="M68.25,4.66V2.88h-0.87c-0.74-0.02-1.48-0.11-2.2-0.27c-0.49-0.11-0.94-0.35-1.29-0.69
	c-0.31-0.36-0.47-0.81-0.46-1.26c-0.01-0.21,0.02-0.42,0.11-0.61h1.42c-0.04,0.11-0.05,0.22-0.05,0.33c0,0.38,0.27,0.63,0.81,0.75
	c0.71,0.14,1.43,0.2,2.16,0.19l1.83,0.03v4.93h-6.24V4.66H68.25z"/>
<path class="st0" d="M63.31,10.7c-0.02-0.84,0.31-1.65,0.92-2.27c0.3-0.31,0.67-0.55,1.09-0.71c0.41-0.16,0.86-0.23,1.31-0.22
	c0.43-0.01,0.86,0.06,1.26,0.2c0.4,0.14,0.77,0.36,1.08,0.64c0.32,0.28,0.57,0.62,0.73,0.99c0.16,0.37,0.24,0.78,0.22,1.18
	c0.01,0.38-0.07,0.76-0.24,1.11c-0.17,0.35-0.42,0.65-0.74,0.9c-0.66,0.51-1.49,0.77-2.34,0.75h-0.46V9.12
	c-0.2,0.04-0.39,0.11-0.56,0.22c-0.17,0.11-0.31,0.25-0.41,0.42c-0.24,0.39-0.36,0.84-0.34,1.28c0,0.65,0.19,1.29,0.55,1.85h-1.41
	C63.48,12.24,63.26,11.47,63.31,10.7z M67.25,9.12v2.53c0.34,0,0.67-0.13,0.92-0.35c0.12-0.11,0.21-0.24,0.27-0.39
	s0.09-0.3,0.09-0.45c0.01-0.33-0.11-0.65-0.34-0.9C67.94,9.3,67.61,9.15,67.25,9.12L67.25,9.12z"/>
<path class="st0" d="M63.47,17.3v-1.63h4.78v-1.8h1.48v5.25h-1.48V17.3H63.47z"/>
<path class="st0" d="M12.56,35.02H2.18L16.86,7.88H0.06V0.01h27.79v7L12.56,35.02z"/>
<path class="st0" d="M41.01,35.72c-3.85,0.07-7.66-0.8-11.04-2.5v-8.35c3.44,1.97,6.95,2.95,10.53,2.95c2.1,0,3.79-0.39,5.08-1.18
	c0.63-0.38,1.14-0.91,1.48-1.52c0.34-0.62,0.5-1.31,0.45-2c0.02-0.68-0.14-1.35-0.48-1.95c-0.33-0.6-0.83-1.12-1.44-1.5
	c-1.29-0.84-3.06-1.26-5.3-1.26c-3.12,0.07-6.21,0.61-9.13,1.6L33.67,0h21.1v7.66H40.9l-0.49,3.85c0.77-0.14,1.55-0.2,2.34-0.2
	c4.24,0,7.74,1.08,10.5,3.25c2.76,2.17,4.13,5.02,4.12,8.56c0,4.04-1.58,7.15-4.73,9.35C49.48,34.67,45.61,35.76,41.01,35.72z"/>
<path class="st0" d="M0.06,42.81v-1.49h7.36v1.49H4.63v6.59H2.8v-6.59H0.06z"/>
<path class="st0" d="M13.84,49.56c-0.76,0.02-1.5-0.21-2.09-0.66c-0.58-0.45-0.97-1.08-1.09-1.77h-1v2.27H7.89v-5.76h1.77v2.11h1.04
	c0.15-0.64,0.53-1.22,1.08-1.64c0.58-0.43,1.31-0.66,2.06-0.64c0.43-0.01,0.87,0.06,1.27,0.21c0.4,0.15,0.77,0.38,1.07,0.67
	c0.3,0.28,0.54,0.62,0.7,0.99c0.16,0.37,0.23,0.76,0.22,1.16c0.01,0.4-0.06,0.8-0.22,1.17c-0.16,0.37-0.39,0.71-0.69,1
	c-0.3,0.29-0.66,0.52-1.06,0.67C14.71,49.5,14.28,49.57,13.84,49.56z M13.84,48.14c0.21,0,0.41-0.04,0.6-0.12
	c0.19-0.08,0.35-0.2,0.48-0.35c0.29-0.32,0.44-0.74,0.42-1.15c0.02-0.42-0.13-0.83-0.42-1.15c-0.13-0.15-0.3-0.26-0.49-0.34
	c-0.19-0.08-0.39-0.12-0.6-0.11c-0.21-0.01-0.42,0.03-0.61,0.11c-0.19,0.08-0.36,0.2-0.49,0.35c-0.29,0.32-0.44,0.73-0.43,1.15
	c-0.01,0.42,0.13,0.83,0.41,1.15c0.14,0.15,0.31,0.27,0.5,0.35C13.42,48.1,13.63,48.14,13.84,48.14z"/>
<path class="st0" d="M20.06,49.4H18.4v-5.76h1.74l1.83,2.14l1.83-2.14h1.74v5.76h-1.68v-3.56l-1.56,1.79h-0.7l-1.55-1.79V49.4z"/>
<path class="st0" d="M30.33,49.55c-0.91,0.02-1.8-0.28-2.47-0.84c-0.33-0.28-0.59-0.62-0.77-1c-0.17-0.38-0.25-0.79-0.24-1.2
	c-0.01-0.4,0.07-0.79,0.22-1.16c0.16-0.37,0.39-0.71,0.69-0.99c0.3-0.29,0.67-0.52,1.08-0.67c0.41-0.15,0.84-0.22,1.28-0.21
	c0.41-0.01,0.82,0.06,1.2,0.21c0.38,0.15,0.71,0.39,0.98,0.68c0.55,0.6,0.84,1.37,0.82,2.16v0.42h-4.49
	c0.04,0.19,0.12,0.36,0.24,0.51c0.12,0.15,0.27,0.28,0.45,0.38c0.43,0.22,0.91,0.33,1.4,0.31c0.71,0,1.4-0.18,2.01-0.51v1.31
	C32.02,49.39,31.18,49.6,30.33,49.55z M28.61,45.93h2.75c0-0.32-0.14-0.62-0.38-0.84c-0.12-0.11-0.26-0.19-0.42-0.25
	c-0.16-0.06-0.33-0.08-0.49-0.08c-0.36-0.01-0.71,0.1-0.98,0.32C28.81,45.29,28.64,45.6,28.61,45.93z"/>
<path class="st0" d="M36.23,49.4h-1.77v-5.76h1.77v2.15h2.57v-2.15h1.77v5.76H38.8v-2.26h-2.57V49.4z"/>
<path class="st0" d="M45.28,49.56c-0.89,0.01-1.75-0.29-2.4-0.84c-0.33-0.28-0.59-0.62-0.76-1.01c-0.17-0.38-0.25-0.79-0.24-1.21
	c-0.02-0.41,0.06-0.82,0.24-1.19c0.17-0.38,0.44-0.71,0.77-0.99c0.66-0.55,1.53-0.85,2.42-0.84c0.64-0.01,1.28,0.12,1.86,0.38v1.39
	c-0.5-0.22-1.04-0.34-1.59-0.35c-0.5-0.01-0.99,0.15-1.37,0.45c-0.18,0.14-0.32,0.32-0.42,0.52c-0.1,0.2-0.14,0.42-0.13,0.63
	c-0.01,0.22,0.04,0.44,0.14,0.64c0.1,0.2,0.24,0.38,0.43,0.52c0.38,0.3,0.87,0.46,1.37,0.45c0.59,0.01,1.18-0.12,1.69-0.4v1.39
	C46.66,49.41,45.97,49.56,45.28,49.56z"/>
<path class="st0" d="M50.55,49.4h-1.77v-5.76h1.77v2.11l2.16-2.11h2.19l-2.75,2.6l3.15,3.16H53l-2.47-2.48L50.55,49.4z"/>
<path class="st0" d="M55.4,46.52c-0.01-0.4,0.07-0.8,0.24-1.17c0.17-0.37,0.42-0.7,0.74-0.98c0.69-0.56,1.58-0.88,2.5-0.88
	s1.81,0.31,2.5,0.88c0.31,0.28,0.55,0.62,0.72,0.99c0.17,0.37,0.25,0.77,0.25,1.17c0,0.4-0.09,0.8-0.25,1.17
	c-0.17,0.37-0.41,0.71-0.72,0.99c-0.69,0.56-1.58,0.87-2.5,0.87c-0.92,0-1.81-0.31-2.5-0.87c-0.32-0.28-0.57-0.62-0.74-0.99
	C55.47,47.32,55.39,46.92,55.4,46.52z M57.15,46.52c-0.01,0.21,0.03,0.42,0.12,0.62c0.08,0.2,0.21,0.38,0.37,0.53
	c0.33,0.3,0.78,0.46,1.24,0.46c0.46,0,0.91-0.17,1.24-0.46c0.16-0.15,0.29-0.33,0.37-0.53c0.08-0.2,0.12-0.41,0.12-0.62
	c0.01-0.21-0.03-0.42-0.12-0.62c-0.08-0.2-0.21-0.38-0.37-0.53c-0.16-0.15-0.36-0.27-0.57-0.35c-0.21-0.08-0.44-0.12-0.67-0.11
	c-0.23-0.01-0.46,0.03-0.67,0.11c-0.21,0.08-0.41,0.2-0.57,0.35c-0.16,0.15-0.29,0.33-0.38,0.53
	C57.18,46.09,57.14,46.31,57.15,46.52z"/>
<path class="st0" d="M65.31,49.4h-1.66v-5.76h1.77v3.37l2.84-3.37h1.65v5.76h-1.74v-3.4L65.31,49.4z M66.77,43.01
	c-0.6,0.02-1.18-0.17-1.63-0.54c-0.21-0.18-0.38-0.41-0.49-0.65c-0.11-0.25-0.16-0.51-0.15-0.78h1.33c0,0.11,0.01,0.22,0.06,0.33
	s0.11,0.2,0.19,0.28c0.09,0.08,0.2,0.14,0.31,0.18c0.12,0.04,0.24,0.06,0.36,0.05c0.12,0.01,0.25-0.01,0.36-0.05
	c0.12-0.04,0.22-0.1,0.31-0.18c0.08-0.08,0.15-0.18,0.2-0.28c0.04-0.1,0.06-0.22,0.06-0.33h1.34c0.01,0.27-0.04,0.54-0.15,0.79
	c-0.11,0.25-0.28,0.47-0.5,0.66C67.94,42.84,67.36,43.03,66.77,43.01z"/>
<path class="st0" d="M0.13,56.95c-0.01-0.4,0.07-0.8,0.24-1.17c0.17-0.37,0.42-0.7,0.74-0.98c0.33-0.29,0.72-0.52,1.15-0.67
	c0.43-0.15,0.89-0.22,1.35-0.2c0.46-0.02,0.92,0.05,1.35,0.2c0.43,0.15,0.82,0.38,1.15,0.67c0.31,0.28,0.55,0.62,0.72,0.99
	c0.17,0.37,0.25,0.77,0.25,1.17c0,0.4-0.09,0.8-0.25,1.17c-0.17,0.37-0.41,0.71-0.72,0.99c-0.33,0.29-0.73,0.51-1.16,0.66
	c-0.43,0.15-0.89,0.22-1.34,0.2c-0.46,0.02-0.91-0.05-1.34-0.2c-0.43-0.15-0.82-0.37-1.15-0.66c-0.32-0.28-0.57-0.62-0.74-0.99
	S0.12,57.35,0.13,56.95z M1.87,56.95c-0.01,0.21,0.03,0.42,0.12,0.62c0.08,0.2,0.21,0.38,0.37,0.53c0.33,0.3,0.78,0.46,1.24,0.46
	c0.46,0,0.91-0.16,1.24-0.46c0.16-0.15,0.29-0.33,0.37-0.53c0.08-0.2,0.12-0.41,0.12-0.62c0.01-0.21-0.03-0.42-0.12-0.62
	c-0.08-0.2-0.21-0.38-0.37-0.53c-0.33-0.3-0.78-0.46-1.24-0.46c-0.46,0-0.91,0.16-1.24,0.46c-0.16,0.15-0.29,0.33-0.37,0.53
	C1.9,56.53,1.86,56.74,1.87,56.95z"/>
<path class="st0" d="M11.95,54.44c0.37-0.01,0.73,0.04,1.08,0.16c0.34,0.12,0.66,0.31,0.92,0.54c0.26,0.25,0.47,0.54,0.6,0.86
	c0.13,0.32,0.19,0.67,0.18,1.01c0.02,0.4-0.05,0.79-0.21,1.16c-0.16,0.37-0.4,0.7-0.7,0.98c-0.31,0.28-0.67,0.5-1.07,0.64
	c-0.4,0.14-0.83,0.21-1.26,0.2c-0.48,0.03-0.96-0.05-1.41-0.23c-0.44-0.18-0.83-0.45-1.14-0.79c-0.64-0.79-0.96-1.75-0.92-2.73
	c-0.02-0.67,0.1-1.33,0.35-1.96c0.23-0.53,0.62-1,1.13-1.33c0.56-0.37,1.18-0.65,1.83-0.84c0.87-0.26,1.77-0.44,2.67-0.56v1.51
	l-0.66,0.11l-0.65,0.1l-0.59,0.12c-0.36,0.07-0.72,0.17-1.07,0.29c-0.3,0.11-0.58,0.28-0.81,0.49c-0.37,0.33-0.58,0.79-0.59,1.26
	c0.28-0.32,0.63-0.58,1.04-0.75C11.06,54.5,11.5,54.42,11.95,54.44z M11.43,58.61c0.21,0.01,0.41-0.03,0.6-0.1
	c0.19-0.07,0.36-0.18,0.51-0.32c0.14-0.14,0.26-0.31,0.33-0.49s0.11-0.38,0.1-0.57c0.01-0.18-0.02-0.36-0.09-0.53
	c-0.07-0.17-0.18-0.32-0.32-0.45c-0.14-0.12-0.31-0.22-0.49-0.28c-0.18-0.06-0.38-0.09-0.57-0.08c-0.35,0.01-0.69,0.09-0.99,0.24
	c-0.31,0.15-0.57,0.37-0.76,0.63c-0.03,0.51,0.13,1.02,0.46,1.44c0.15,0.17,0.34,0.3,0.55,0.39C10.96,58.58,11.2,58.62,11.43,58.61z
	"/>
<path class="st0" d="M20.34,55.44h-1.93l-0.03,0.8c-0.01,0.68-0.11,1.36-0.29,2.02c-0.12,0.45-0.38,0.86-0.75,1.18
	c-0.4,0.29-0.89,0.44-1.4,0.42c-0.23,0.01-0.46-0.02-0.67-0.11v-1.33c0.12,0.03,0.24,0.05,0.37,0.05c0.41,0,0.68-0.25,0.81-0.74
	c0.15-0.65,0.22-1.32,0.2-1.98l0.04-1.69h5.41v5.76h-1.77V55.44z"/>
<path class="st0" d="M29.8,58.57c0.12,0.01,0.25-0.02,0.36-0.07v1.19c-0.28,0.18-0.61,0.26-0.95,0.24
	c-0.29,0.03-0.58-0.02-0.84-0.16c-0.25-0.13-0.46-0.34-0.58-0.58c-0.28,0.26-0.62,0.47-0.99,0.6c-0.37,0.13-0.77,0.2-1.17,0.18
	c-0.61,0.03-1.21-0.16-1.67-0.53c-0.21-0.18-0.38-0.39-0.49-0.63c-0.11-0.24-0.16-0.5-0.15-0.76c-0.02-0.27,0.04-0.54,0.17-0.79
	c0.13-0.25,0.32-0.46,0.56-0.62c0.51-0.33,1.12-0.5,1.74-0.48c0.63-0.02,1.26,0.1,1.83,0.36v-0.17c0-0.72-0.55-1.08-1.66-1.08
	c-0.67,0-1.32,0.16-1.9,0.48v-1.36c0.72-0.32,1.52-0.48,2.32-0.46c0.77-0.04,1.54,0.17,2.16,0.6c0.27,0.2,0.49,0.45,0.63,0.74
	c0.14,0.29,0.21,0.61,0.2,0.92v1.95C29.37,58.43,29.51,58.57,29.8,58.57z M27.61,58.15v-0.58c-0.39-0.23-0.85-0.35-1.31-0.34
	c-0.32-0.02-0.64,0.05-0.92,0.2c-0.11,0.06-0.19,0.14-0.25,0.24c-0.06,0.1-0.09,0.21-0.08,0.32c-0.01,0.11,0.02,0.22,0.07,0.31
	c0.05,0.1,0.13,0.18,0.23,0.24c0.24,0.14,0.53,0.21,0.82,0.19c0.28,0.02,0.55-0.03,0.8-0.14c0.25-0.11,0.47-0.27,0.64-0.47V58.15z"
	/>
<path class="st0" d="M34.38,59.98c-0.89,0.01-1.74-0.29-2.39-0.84c-0.33-0.28-0.59-0.62-0.76-1.01c-0.17-0.38-0.25-0.79-0.24-1.21
	c-0.02-0.41,0.06-0.82,0.24-1.19c0.17-0.38,0.44-0.71,0.77-0.99c0.66-0.55,1.53-0.86,2.42-0.84c0.63,0,1.26,0.12,1.83,0.38v1.39
	c-0.5-0.22-1.04-0.34-1.59-0.35c-0.5-0.01-0.99,0.15-1.37,0.45c-0.18,0.14-0.32,0.32-0.42,0.52c-0.1,0.2-0.14,0.42-0.13,0.64
	c-0.01,0.22,0.04,0.44,0.14,0.64c0.1,0.2,0.24,0.38,0.43,0.52c0.38,0.3,0.87,0.46,1.37,0.45c0.59,0.01,1.18-0.12,1.69-0.39v1.39
	C35.75,59.83,35.07,59.98,34.38,59.98z"/>
<path class="st0" d="M40.92,59.83h-1.77v-4.4H37.2v-1.36h5.71v1.36h-1.98V59.83z"/>
<path class="st0" d="M45.6,59.83h-1.66v-5.76h1.74v3.4l2.84-3.4h1.65v5.76h-1.74v-3.4L45.6,59.83z"/>
</svg>
